<?xml version="1.0" encoding="utf-8"?>
<!-- Generator: Adobe Illustrator 18.1.1, SVG Export Plug-In . SVG Version: 6.00 Build 0)  -->
<svg version="1.1" id="Layer_1" xmlns="http://www.w3.org/2000/svg" xmlns:xlink="http://www.w3.org/1999/xlink" x="0px" y="0px"
	 viewBox="0 0 200 75" enable-background="new 0 0 200 75" xml:space="preserve">
<g>
	<path fill="#E2D0A6" d="M36.4,65.6c-15.3,0-27.7-12.4-27.7-27.7s12.4-27.7,27.7-27.7s27.7,12.4,27.7,27.7S51.6,65.6,36.4,65.6z"/>
	<path fill="#8B2332" d="M36.4,11.2c14.7,0,26.7,12,26.7,26.7c0,14.7-12,26.7-26.7,26.7c-14.7,0-26.7-12-26.7-26.7
		C9.7,23.2,21.7,11.2,36.4,11.2 M36.4,9.2C20.5,9.2,7.7,22,7.7,37.9c0,15.8,12.8,28.7,28.7,28.7s28.7-12.8,28.7-28.7
		C65.1,22,52.2,9.2,36.4,9.2L36.4,9.2z"/>
	<path fill="#E2D0A6" d="M36.4,10.2c15.3,0,27.7,12.4,27.7,27.7c0,15.3-12.4,27.7-27.7,27.7S8.7,53.1,8.7,37.9
		C8.7,22.6,21.1,10.2,36.4,10.2 M36.4,9.2C20.5,9.2,7.7,22,7.7,37.9c0,15.8,12.8,28.7,28.7,28.7s28.7-12.8,28.7-28.7
		C65.1,22,52.2,9.2,36.4,9.2L36.4,9.2z"/>
	<path fill="#8B2332" d="M36.4,9.2c15.8,0,28.7,12.8,28.7,28.7c0,15.8-12.8,28.7-28.7,28.7S7.7,53.7,7.7,37.9
		C7.7,22,20.5,9.2,36.4,9.2 M36.4,6.2C18.9,6.2,4.7,20.4,4.7,37.9c0,17.5,14.2,31.7,31.7,31.7s31.7-14.2,31.7-31.7
		C68.1,20.4,53.8,6.2,36.4,6.2L36.4,6.2z"/>
</g>
<g>
	<path fill="#FFFFFF" d="M29.6,13.4l3.7-1.3c0,0,2.5,1.5,4.6,1.3c2.1-0.2,2.9,1,2.9,1l2.7,1.4c0,0,1.6,0.1,3.6-0.8
		c0.8,0,1.8,1.2,1.8,1.2l1.4,4.5l-0.9,2.9l-0.5,2.5l1.4,2.8v6l-0.8,3.7c0,0,0.7,3.6,0,5.1C48.8,45.3,48,47,48,47s0.1,1.3-0.9,3.4
		c-1,2.1-1.6,3.4-1.6,3.4l-1.3,2.9l-1.6,1.5c0,0-2.3,1.8-4.3,1.9c-2,0.1-6.6-0.9-6.6-0.9l-4.8-6l-2.7-8.7L23,37.4l1.8-10l0.5-8.5
		L29.6,13.4z"/>
	<g>
		<defs>
			<circle id="SVGID_3_" cx="36.4" cy="37.9" r="28.7"/>
		</defs>
		<clipPath id="SVGID_2_">
			<use xlink:href="#SVGID_3_"  overflow="visible"/>
		</clipPath>
		<path clip-path="url(#SVGID_2_)" fill="#FFFFFF" d="M24.2,52.5l-2.7,3.8l-1.4,7.2v3.4h31.7l-4.9-4.1l-0.7-2.6c0,0-0.6-0.4-1.7-1.3
			c-0.3-0.3-1.1-1.1-1.1-1.1l-10.1-2.4L24.2,52.5z"/>
		<g id="XMLID_1_" clip-path="url(#SVGID_2_)">
			<g>
				<path d="M49.5,62.8c5.4,0.3,10.9,0.5,13.1,4c-5.7,0.1-11.8,0.2-17.5,0c0.5-2,0.3-4.8,1-6.6c0.5,0.6,0.9,1.3,1.4,1.9
					C48.2,62.3,48.8,62.5,49.5,62.8z"/>
				<path d="M52,25.1c0.1,0,0.5,0.2,1-0.2c0.4,1.4-0.8,2.2-0.5,3.4c-0.5,0.9-0.3,2.6-0.8,3.5c-0.1,1-0.2,1.9-0.5,2.6
					c-0.2,1-0.3,2.1-1.1,2.6c-0.3-1.8,0.2-3.4,0.2-5.2c-0.5-1.7-0.8-3.6-1.5-5.1c-1.5-0.1-2.4-0.8-3.7-1.2c-1.3,0.5-3.8,0.5-4.9-0.2
					c-0.2-0.7,0-1.2-0.5-1.5c0.2-1.3-0.1-2.5-0.3-3.8c-0.8-0.2-0.4,0.9-0.3,1.2c-0.4,0.9-1.2,1.5-1,2.6c-1.6,0.9-4.1,0.4-6.1-0.2
					c-0.7-0.2-1.2-0.7-1.9-0.2c0,0.9-0.6,1.2-1.1,1.6c0,0.2,0,0.5,0,0.7c-0.8,0.4-0.2,2.3-0.8,2.8c0.7,1.1,0.1,3-0.2,4.3
					c0.3,0.4,1.2,0.2,1.8-0.1c2.3,0.5,4.9,0.2,6.2,1.7c1,0,1.3,0.7,1.7,1.2c0,1.1-0.4,1.7-0.9,2.3c-0.4-0.1-0.4-0.6-0.8-0.6
					c-0.3,0.7-1.4,0.1-1.9,0.2c0.4-0.6-0.3-1-0.9-1.2c-0.2,0.3-0.3,0.7-0.5,1c-0.8,0.3-1.7,0.1-2.4-0.3c-0.4,0.9,0.7,1,0.9,1.5
					c-2.2,0.1-3.9-1.4-6.1-1.4c-0.6,1.7,0.9,3.5,1.4,5.5c0.6,0.9,1.4,1.7,2.1,2.5c0.2,1,0.2,1.7,0.6,2.4c-0.1,0.3-0.4,0.5-0.6,0.7
					c0.2,0.5,0.3-0.2,0.6-0.1c0.1,0.4-0.2,0.4-0.3,0.7c0.3,0.2,0.5,0.4,0.9,0.5c-0.2,0.5-0.4,0.8,0,1.3c-0.1,0-0.2,0-0.4,0
					c0.3,0.4,0.4,0.9,0.7,1.3c0,0.3-0.2,0.3-0.4,0.5c0.3,1.2,1.5,1.9,1.1,3.3c1.8,3.1,5.9,3.8,10.1,3.3c-1.3,1.3-2.6,2.7-3.5,4.4
					c-0.3,0.2-0.5-0.1-0.6,0.2c-5.4-2.2-10.4-4.7-13.6-9.1c-0.4,0.5-0.1,1.3,0,1.7c1.1,3.9,3.8,6.9,5.2,10.4c-8.4,0-16.8,0-25.2,0
					c4.1-1.5,7.8-3.5,11.6-5.4c1.9-3.3,5.1-5.4,7.1-8.5c0.3-0.3,0.7-0.5,0.9-0.8c-0.3-2.1-0.5-4.4-0.5-6.7c-0.2-0.2-0.4,0.1-0.8,0
					c-0.8-0.2-1.3-0.6-1.9-1c-0.7-1.1-1.2-2.7-1.5-4.5c-0.3-1.8-1.4-4.3-0.1-5.9c0.3-0.2,0.5-0.4,0.9-0.5c0.4,0,0.7,0.2,1.2,0.1
					c0-1.1-0.6-2-0.5-3.6c0.1-1,0.5-2.1,0.6-3.3c0.1-1.1-0.1-2.1,0-3c0.3-2.1,2.1-4.5,2.7-6.4c1.4-1.6,3.3-2.8,4.5-4.5
					c2.1-0.3,4.9-1.2,7.1-0.5c0.1,0.4,0.6,0.7,0.2,1.1c0.4,0.7,1.2,1.1,1.5,1.8c-0.1,0.6-0.3,1.5,0.4,1.5c0.3,0.1,0.2-0.2,0.2-0.4
					c0.4,0.1,0.6,0.5,1,0.6c0-0.6-0.5-1.2,0.2-1.4c-0.1-0.5-0.6-0.6-0.6-1.1c0.8-1,2.8-1.8,4.3-0.9c0.3,1.1,1.1,1.8,2.3,2.1
					c-0.4,0.4-1.1,0-1.5,0.4c0,0.5,0.6,0.4,0.6,0.9c0,0.4-0.4,0.5-0.5,0.8c0.3,0.7,0.6,1.3,1.1,1.8c0,0.3-0.4,0.3-0.7,0.3
					c-0.1,0.6,0.7,0.4,0.7,0.9c-0.6,0.5,0,1.2-0.3,1.7c0.3,0.6,1.7,0.6,2.4,0.3c-0.5-0.8-0.3-1.2-0.9-1.6c0.4-0.4-0.2-0.8,0-1.2
					c0.6-0.6,1.2-0.8,2.3-0.7c0.1-0.4,0.5-0.7,0.6-1.1c-0.7-0.4-2.2,0.3-2.8-0.4c1.1,0.1,2.6-0.1,3.1-1.2c-0.7-0.4-1.2,0.6-2.3,0.1
					c0-0.5,0.1-1,0.2-1.4c1.9-0.3,4.4-0.4,4.9,1.3c-0.2,0.6-0.3,1.2-0.4,2c0.4,0.1,0.6-0.6,0.7-1c0.3,0.2,0,0.8,0,1.2
					c0.2,0.2,0.3-0.1,0.5-0.1c-0.3,0.9,0.5,2.5-0.5,3.2c0.1,0.4,0.3,0.8,0,1.1c0.4-0.2,0.4-0.7,0.9-0.7C52.6,23.1,52.9,24.4,52,25.1
					z M51.2,28.3c0.7-0.1,1.2-0.8,1.2-1.4c-0.5-0.1-0.6,0.7-0.9,0.5c0.2-0.2,0.3-0.5,0.3-0.9c-0.4-0.4-0.8,0.2-0.8,0.8
					C51.1,27.8,51.4,27.8,51.2,28.3z M51.3,24.4c0.1-0.3,0.6-0.8,0.5-1.1C51.6,23.7,50.8,24.1,51.3,24.4z M48.6,19.8
					c0.3,0,0.9-0.4,0.5-0.5C49,19.6,48.4,19.3,48.6,19.8z M37.3,18.7c-0.1-0.9-0.6-1.4-1.1-2c-0.1,0.2,0,0.5-0.2,0.5
					c-0.2,0-0.2-0.2-0.5-0.2c-0.2,1,0.1,1.7,0.6,2.2c0.7-0.3,0-1.2,0-1.6C36.7,17.8,36.6,18.6,37.3,18.7z M34.2,19.9
					c0.4-0.1,0.5-0.4,0.6-0.7c-0.1-0.6-0.7-1.1-1.1-0.5C33.9,19.1,34,19.6,34.2,19.9z M32.5,36.7c0-0.1,0-0.3-0.1-0.4
					C32.3,36.5,32.3,36.7,32.5,36.7z M30.4,35.6c0.4,0.2,1.4,0.2,1.6-0.2C31.6,35.2,30.5,35,30.4,35.6z"/>
				<path fill="#FFFFFF" d="M52.4,27c0.1,0.6-0.5,1.3-1.2,1.4c0.2-0.6-0.1-0.5-0.3-0.9c0-0.6,0.4-1.2,0.8-0.8c0,0.4-0.1,0.7-0.3,0.9
					C51.7,27.7,51.9,26.9,52.4,27z"/>
				<path fill="#FFFFFF" d="M51.7,23.3c0.1,0.3-0.3,0.8-0.5,1.1C50.8,24.1,51.6,23.7,51.7,23.3z"/>
				<path d="M47.8,36.2c0.6-0.3,1.7,0,1.5,1c-0.1,0.1-0.2,0.2-0.3,0.4c-1.4-0.3-2.3-1.4-3.9-0.7c1.1,0.7,3.5,0.6,3,2.5
					c-1.1,0.3-1.7-0.5-2.3-1.1c-0.6,0.7-1.5,0.3-2.4,0.2c-0.2-0.2-0.3-0.5-0.4-0.8c-0.4,0-0.2,0.5-0.4,0.7c-1,0.2-1.4-0.4-2-0.4
					c-0.3-0.5,0-1.2,0.1-1.7c0.5-0.2,0.8-0.5,1.2-0.8c1.1-0.3,2.7-0.3,3.8-0.2c0.3-0.1,0.2,0.3,0.5,0.4C47,35.6,47.6,35.8,47.8,36.2
					z"/>
				<path fill="#FFFFFF" d="M49,19.3c0.4,0.2-0.1,0.6-0.5,0.5C48.4,19.3,49,19.6,49,19.3z"/>
				<path d="M45.7,17c0,0.3-0.2,0.3-0.4,0.5c-0.5-0.3-0.8-0.2-1.3-0.5C44.6,16.8,45.3,16.6,45.7,17z"/>
				<path d="M39.5,50.4c1.2,0.3,2.7,0.3,3.5,0.9c-2.9,0.3-6.1,0-9.1,0.3c-0.5-0.2-1.1-0.4-1.6-0.6c0.1-0.6,0.6-0.7,1.2-0.5
					c1.2-0.2,2.2-0.1,3.6-0.2c0.4,0.1,0.7,0.4,1.2,0.5C38.7,50.6,39.1,50.5,39.5,50.4z"/>
				<path d="M39.3,45.7c1.1,0.2,2-0.4,2.6,0.1c-0.8,1.2-2,1.9-3.5,2.4c-0.5-0.1-0.5-0.6-0.7-0.8c-1-0.1-1.9-0.3-2.4-0.9
					c-0.4-1.1-0.1-2.4,0.5-3c0.3,0.4-0.3,0.9,0.1,1.3c0.4,0.1,0.8-0.1,1.3-0.2C38,44.9,38.6,45.4,39.3,45.7z"/>
				<path d="M38.5,54.9c0,0.1,0,0.1,0,0.2c-0.1,0-0.1,0-0.2,0c0-0.1,0-0.1,0-0.2C38.4,54.9,38.5,54.9,38.5,54.9z"/>
				<path d="M38.2,55.1c-0.1,0.2-0.4,0.2-0.7,0.2c0-0.1,0-0.2,0-0.4c-0.3,0.5-1.2,0.4-1.9,0.4c-0.1-0.3,0.3-0.3,0.3-0.5
					C36.7,54.9,37.5,54.4,38.2,55.1z"/>
				<path d="M37.8,54c0,0.2-0.2,0.1-0.2,0.4c-0.4,0-0.5-0.2-0.8-0.3C36.9,53.6,37.6,53.7,37.8,54z"/>
				<path fill="#FFFFFF" d="M36.2,16.7c0.4,0.6,1,1.1,1.1,2c-0.6-0.1-0.5-0.9-1.1-1.1c0,0.4,0.7,1.3,0,1.6c-0.6-0.5-0.8-1.2-0.6-2.2
					c0.2,0,0.3,0.1,0.5,0.2C36.2,17.2,36.1,16.9,36.2,16.7z"/>
				<path fill="#FFFFFF" d="M34.8,19.2c-0.2,0.3-0.3,0.6-0.6,0.7c-0.2-0.3-0.3-0.8-0.5-1.2C34.2,18.1,34.7,18.6,34.8,19.2z"/>
				<path fill="#FFFFFF" d="M32.4,36.4c0.1,0,0.1,0.2,0.1,0.4C32.3,36.7,32.3,36.5,32.4,36.4z"/>
				<path fill="#FFFFFF" d="M32,35.4c-0.2,0.3-1.2,0.3-1.6,0.2C30.5,35,31.6,35.2,32,35.4z"/>
			</g>
		</g>
	</g>
	<path d="M39.9,59.4l-3.2,3.4l0.9,0.9l6.1-6.3C41.4,59.1,39.9,59.4,39.9,59.4z"/>
	<path fill="#FFFFFF" d="M51.6,25.4c0,0-0.4,0.8-1.4,1.2v-0.8C50.3,25.7,51,25,51.6,25.4z"/>
</g>
<text transform="matrix(1 0 0 1 72.7899 25.8792)"><tspan x="0" y="0" fill="#1A1A1A" font-family="'Calluna-Bold'" font-size="15.9528">The Ronald</tspan><tspan x="80.4" y="0" fill="#1A1A1A" font-family="'Calluna-Bold'" font-size="15.9528"> </tspan><tspan x="83.6" y="0" fill="#1A1A1A" font-family="'Calluna-Bold'" font-size="15.9528">W. </tspan><tspan x="0" y="16.6" fill="#1A1A1A" font-family="'Calluna-Bold'" font-size="15.9528">Reagan Society</tspan><tspan x="0" y="33.1" fill="#1A1A1A" font-family="'Calluna-Bold'" font-size="15.9528">of Eureka College</tspan></text>
</svg>
